<?xml version="1.0" standalone="no"?>
<!DOCTYPE svg PUBLIC "-//W3C//DTD SVG 20010904//EN"
 "http://www.w3.org/TR/2001/REC-SVG-20010904/DTD/svg10.dtd">
<svg version="1.0" xmlns="http://www.w3.org/2000/svg"
 width="247.000000pt" height="247.000000pt" viewBox="0 0 247.000000 247.000000"
 preserveAspectRatio="xMidYMid meet">

<g transform="translate(0.000000,247.000000) scale(0.100000,-0.100000)"
fill="#fff" stroke="none">
<path d="M1025 2339 c-209 -31 -425 -137 -591 -292 -398 -371 -470 -979 -169
-1432 210 -317 560 -505 938 -505 617 1 1115 503 1117 1125 1 540 -408 1019
-940 1100 -103 16 -260 18 -355 4z m-82 -837 l257 -257 258 257 c141 141 268
261 282 266 32 12 64 0 86 -33 14 -21 15 -30 5 -51 -14 -31 -585 -596 -612
-606 -10 -4 -27 -4 -38 0 -29 11 -599 575 -610 603 -19 52 36 107 88 88 14 -6
142 -126 284 -267z m-280 -293 c12 -6 138 -126 280 -267 l257 -257 258 257
c141 141 268 261 282 266 14 5 35 6 47 1 30 -11 56 -53 48 -78 -9 -29 -595
-611 -622 -617 -12 -3 -31 0 -41 8 -36 25 -589 573 -601 596 -15 29 3 71 39
89 30 15 27 15 53 2z"/>
</g>
</svg>
