<?xml version="1.0" standalone="no"?>
<!DOCTYPE svg PUBLIC "-//W3C//DTD SVG 20010904//EN"
 "http://www.w3.org/TR/2001/REC-SVG-20010904/DTD/svg10.dtd">
<svg version="1.0" xmlns="http://www.w3.org/2000/svg"
 width="2048.000000pt" height="2048.000000pt" viewBox="0 0 2048.000000 2048.000000"
 preserveAspectRatio="xMidYMid meet">

<g transform="translate(0.000000,2048.000000) scale(0.100000,-0.100000)"
fill="#000000" stroke="none">
<path d="M5860 11679 c-106 -11 -342 -61 -474 -101 -213 -63 -490 -188 -653
-294 -94 -61 -109 -88 -76 -132 32 -44 54 -39 146 31 394 301 975 470 1432
418 177 -21 338 -79 386 -139 22 -29 25 -82 5 -120 -18 -33 -95 -107 -161
-154 -162 -115 -576 -317 -1050 -513 -370 -153 -529 -215 -537 -207 -24 24
252 379 461 595 l76 78 -24 20 c-13 10 -37 19 -54 19 -42 0 -108 -68 -315
-328 -186 -234 -316 -413 -432 -597 -68 -108 -80 -135 -78 -165 2 -26 8 -36
23 -38 16 -2 34 16 77 80 84 122 177 236 200 244 12 3 27 -1 38 -11 18 -17 30
-15 227 23 243 48 368 62 536 62 151 -1 222 -20 222 -60 0 -24 -7 -27 -245
-86 -541 -136 -957 -303 -1102 -442 -45 -43 -51 -92 -18 -135 83 -105 514 -10
967 215 169 83 293 167 390 265 l83 82 127 40 c70 22 129 38 131 36 3 -2 -9
-21 -25 -42 -59 -75 -131 -180 -137 -201 -4 -12 -2 -30 4 -42 21 -39 53 -24
157 71 90 83 248 210 317 254 l28 19 -7 -33 c-9 -42 10 -88 44 -106 37 -18 61
-4 44 25 -19 30 -17 40 32 109 57 82 60 132 8 152 -33 12 -71 -5 -204 -96 -62
-41 -113 -74 -115 -73 -1 2 20 39 47 83 52 84 58 105 34 125 -24 20 -40 7
-109 -88 l-65 -88 -133 -22 c-73 -12 -143 -22 -155 -22 -13 0 -34 16 -54 41
-18 23 -52 50 -76 61 -67 29 -246 44 -384 31 -63 -6 -118 -7 -122 -3 -5 4 58
36 140 70 740 312 1063 478 1191 614 87 92 101 153 56 243 -73 148 -275 229
-589 238 -82 2 -188 -1 -235 -6z m-132 -1441 c-8 -24 -142 -118 -257 -180
-281 -153 -678 -289 -851 -292 -63 -1 -75 2 -78 16 -2 12 17 31 66 63 189 122
516 249 912 355 85 23 160 43 165 45 23 8 46 4 43 -7z"/>
<path d="M12565 11320 c-250 -35 -643 -222 -929 -441 -273 -210 -476 -432
-543 -594 -49 -118 -35 -230 37 -309 52 -57 113 -85 222 -102 186 -30 518 24
823 134 198 71 368 143 530 222 76 38 140 68 141 67 1 -1 -11 -33 -27 -72 -24
-57 -29 -81 -26 -133 2 -52 7 -67 30 -90 41 -41 99 -36 209 16 91 42 220 123
298 185 l44 36 27 -32 c24 -28 31 -31 80 -30 37 0 79 11 136 36 l81 34 -5 -53
c-5 -49 -3 -55 25 -83 53 -53 103 -39 255 74 48 36 87 62 87 59 0 -3 -19 -32
-42 -64 -37 -52 -41 -63 -32 -87 18 -53 49 -42 159 58 93 84 253 212 318 254
l28 18 -6 -39 c-9 -61 30 -113 78 -105 11 2 4 -9 -50 -84 -46 -63 -52 -99 -21
-118 19 -12 33 1 98 94 44 64 107 121 162 150 21 10 40 19 42 19 3 0 3 -26 0
-58 -5 -43 -2 -66 9 -89 24 -45 70 -79 117 -87 83 -13 239 43 348 127 29 22
54 38 56 36 1 -2 8 -19 16 -37 37 -95 152 -104 380 -31 155 50 380 168 380
199 0 22 -36 15 -110 -20 -164 -80 -412 -150 -532 -150 -31 0 -60 5 -63 11
-13 20 6 61 50 104 39 40 46 43 74 35 69 -19 255 46 267 94 8 33 -21 84 -52
92 -75 19 -217 -37 -314 -124 -179 -160 -377 -262 -509 -262 -31 0 -43 5 -52
21 -18 34 8 104 63 171 43 51 63 65 163 113 113 54 130 70 100 95 -20 17 -56
8 -195 -44 -63 -24 -116 -42 -118 -41 -2 2 1 13 8 24 6 12 60 46 123 77 304
153 567 384 567 500 0 49 -42 94 -88 94 -43 0 -77 -19 -187 -105 -142 -110
-435 -433 -639 -702 -62 -81 -71 -90 -83 -75 -21 28 -15 47 32 116 49 72 55
104 27 129 -37 34 -74 22 -208 -68 -70 -47 -129 -83 -130 -82 -2 2 19 39 46
83 52 83 58 102 38 122 -25 25 -47 10 -109 -79 -65 -92 -101 -123 -284 -246
-83 -56 -219 -124 -224 -112 -5 15 78 134 143 207 31 34 56 66 56 70 0 15 -31
52 -44 52 -7 0 -23 -11 -36 -25 -28 -30 -37 -31 -45 -6 -3 11 -25 27 -50 37
-92 35 -240 -18 -365 -131 -196 -176 -570 -372 -570 -297 0 53 129 284 210
376 19 21 75 65 124 99 316 212 617 467 701 594 49 75 16 142 -63 129 -78 -12
-264 -148 -446 -325 -113 -111 -166 -169 -350 -386 -23 -27 -53 -69 -66 -93
-20 -35 -40 -51 -115 -92 -480 -259 -1213 -465 -1505 -422 -104 15 -176 46
-196 85 -36 68 17 215 124 350 81 101 308 315 439 414 189 142 388 256 593
338 297 119 507 131 484 26 -10 -43 -60 -143 -90 -182 -16 -20 -47 -58 -68
-83 -35 -41 -38 -49 -28 -71 7 -14 20 -25 31 -25 26 0 117 94 160 164 77 128
81 217 13 289 -53 56 -123 73 -237 57z m1084 -294 c-88 -86 -263 -228 -319
-261 -43 -25 171 186 274 270 68 55 140 104 146 98 3 -3 -43 -51 -101 -107z
m1831 61 c0 -25 -110 -146 -195 -213 -90 -73 -185 -132 -185 -117 0 14 185
202 255 260 96 79 125 95 125 70z m221 -601 c-13 -15 -93 -46 -120 -46 -25 0
1 19 55 40 61 24 81 26 65 6z m-1897 -55 c16 -6 8 -15 -52 -55 -84 -55 -229
-125 -277 -133 -50 -8 -46 14 13 70 57 53 84 68 183 101 77 27 101 30 133 17z"/>
<path d="M8823 10795 c-159 -157 -293 -285 -298 -285 -6 0 -28 9 -50 20 -73
37 -175 17 -268 -54 -17 -13 -52 -32 -77 -42 -25 -10 -91 -44 -147 -76 -56
-32 -104 -58 -107 -58 -3 0 -6 18 -6 40 0 75 -45 130 -107 130 -30 0 -132 -47
-235 -110 -21 -12 -38 -18 -38 -13 0 6 28 48 63 94 73 97 81 113 67 140 -23
42 -55 20 -140 -94 -47 -63 -179 -168 -301 -240 -91 -53 -157 -82 -166 -74 -9
10 74 131 141 205 31 34 56 66 56 70 0 15 -31 52 -44 52 -7 0 -23 -11 -36 -25
-28 -30 -37 -31 -45 -6 -3 11 -25 27 -50 37 -39 14 -53 15 -109 4 -89 -17
-176 -60 -231 -114 -71 -72 -86 -141 -41 -193 35 -40 105 -37 213 9 l81 36 -5
-54 c-5 -49 -4 -55 25 -83 51 -51 96 -41 225 53 43 31 80 56 82 56 2 0 -3 -12
-11 -27 -7 -16 -14 -37 -14 -48 0 -25 27 -65 44 -65 7 0 70 44 142 98 197 148
334 225 358 201 6 -6 4 -27 -7 -56 -22 -63 -22 -104 3 -130 28 -30 62 -18 165
57 46 33 86 60 90 60 3 0 1 -9 -5 -19 -28 -53 7 -145 62 -163 58 -20 163 36
342 180 49 40 91 70 94 67 3 -2 -18 -44 -46 -92 -79 -138 -90 -219 -37 -280
49 -58 147 -25 410 135 l130 79 18 -48 c24 -64 57 -89 117 -89 61 0 145 43
244 125 70 58 79 63 138 69 35 3 98 14 140 25 48 11 75 14 71 7 -4 -6 -24 -34
-45 -62 -46 -62 -57 -104 -34 -139 9 -14 22 -25 29 -25 7 0 72 44 144 98 137
104 270 187 323 202 40 12 48 -6 26 -60 -31 -77 -13 -142 39 -142 28 0 65 22
215 133 117 85 145 113 135 128 -8 14 -52 -4 -188 -79 -59 -33 -110 -60 -112
-60 -3 0 -5 19 -5 43 0 47 -27 99 -61 117 -35 19 -100 3 -185 -46 -115 -66
-134 -75 -134 -66 0 5 32 50 70 101 39 51 70 98 70 105 0 23 -26 48 -45 44
-11 -2 -51 -45 -90 -95 -68 -89 -72 -93 -135 -113 -36 -12 -102 -24 -148 -27
l-83 -6 7 51 c6 48 4 53 -24 82 -32 31 -54 36 -96 21 -21 -8 -27 -6 -40 15
-33 49 -106 21 -214 -80 -90 -85 -374 -265 -554 -351 -106 -51 -112 -36 -42
94 115 213 337 507 561 743 35 36 63 75 63 85 0 18 -38 63 -53 63 -4 0 -136
-128 -294 -285z m-363 -335 c0 -39 -321 -263 -350 -245 -17 11 15 57 87 126
67 65 103 89 172 114 43 16 91 19 91 5z m821 -38 c-17 -31 -13 -60 11 -104
l23 -40 -35 -30 c-49 -42 -144 -88 -180 -88 -25 0 -30 4 -30 23 0 50 87 171
169 233 47 37 59 38 42 6z m-2227 9 c16 -6 8 -15 -52 -55 -84 -55 -229 -125
-277 -133 -50 -8 -46 14 13 70 57 53 84 68 183 101 77 27 101 30 133 17z
m2350 -62 c-20 -23 -44 -25 -44 -4 0 17 53 48 59 34 1 -6 -5 -19 -15 -30z"/>
<path d="M5415 8996 c-45 -20 -67 -50 -72 -99 -6 -54 15 -101 57 -122 84 -44
170 13 170 113 0 80 -85 140 -155 108z m85 -19 c75 -59 63 -184 -19 -202 -97
-21 -163 127 -86 192 29 25 80 30 105 10z"/>
<path d="M10020 8988 c-90 -61 -78 -185 22 -222 45 -17 98 -11 106 12 2 8 -6
8 -29 2 -65 -19 -131 34 -131 106 0 73 62 119 128 95 19 -7 38 -10 42 -7 12
12 -17 28 -60 33 -34 4 -50 0 -78 -19z"/>
<path d="M14574 9000 c-11 -4 -33 -22 -47 -40 -21 -25 -27 -42 -27 -82 0 -44
4 -54 34 -84 38 -38 86 -45 135 -19 32 16 61 69 61 112 0 41 -35 92 -75 109
-39 16 -51 16 -81 4z m84 -26 c70 -48 66 -163 -6 -193 -39 -16 -77 -5 -107 31
-39 46 -32 130 14 165 22 17 72 16 99 -3z"/>
<path d="M4534 8984 c3 -9 6 -63 6 -120 0 -68 4 -103 10 -99 6 3 10 28 10 55
l0 49 38 4 37 4 -37 1 -38 2 0 55 0 54 68 4 c67 3 67 3 -17 5 -72 2 -82 0 -77
-14z"/>
<path d="M4940 8880 c0 -73 4 -120 10 -120 6 0 10 14 10 30 0 28 2 30 38 30
31 0 41 -5 55 -30 10 -16 23 -30 28 -30 6 0 9 3 7 8 -2 4 -10 19 -17 33 -12
24 -11 29 8 48 29 29 35 64 17 100 -17 33 -44 51 -73 51 -12 0 -7 -6 14 -16
84 -41 55 -154 -40 -154 l-38 0 3 85 c2 63 0 85 -9 85 -10 0 -13 -31 -13 -120z"/>
<path d="M5820 8883 c0 -147 18 -168 22 -26 l3 97 78 -97 c43 -53 80 -97 82
-97 3 0 5 54 5 120 0 73 -4 120 -10 120 -6 0 -10 -40 -10 -101 l0 -102 -52 65
c-29 35 -67 82 -85 103 l-32 40 -1 -122z"/>
<path d="M6280 8991 l35 -6 3 -112 c1 -62 7 -113 12 -113 5 0 11 51 12 113 l3
112 35 6 c22 4 3 6 -50 6 -53 0 -72 -2 -50 -6z"/>
<path d="M6644 8984 c3 -9 6 -63 6 -120 l0 -104 75 0 c43 0 75 4 75 10 0 6
-28 10 -65 10 l-65 0 0 55 0 55 65 0 c37 0 65 4 65 10 0 6 -28 10 -65 10 l-65
0 0 35 0 35 59 0 c33 0 63 5 66 10 4 6 -24 10 -75 10 -71 0 -81 -2 -76 -16z"/>
<path d="M7048 8880 c4 -139 22 -164 22 -30 0 50 3 90 8 90 4 -1 39 -41 77
-90 39 -50 75 -88 80 -87 6 2 11 54 13 120 2 98 0 117 -12 117 -12 0 -16 -19
-18 -97 l-3 -97 -78 97 c-43 53 -81 97 -85 97 -4 0 -6 -54 -4 -120z"/>
<path d="M7500 8880 l0 -120 58 0 c75 0 117 25 133 80 9 31 9 49 0 79 -17 60
-51 81 -127 81 l-64 0 0 -120z m115 96 c40 -17 55 -42 55 -93 0 -58 -19 -86
-68 -102 -69 -21 -72 -16 -72 104 l0 105 25 0 c14 0 41 -6 60 -14z"/>
<path d="M8355 8988 c-30 -17 -36 -29 -33 -69 1 -23 -4 -42 -14 -53 -42 -42
-26 -95 36 -116 27 -9 41 -8 71 4 28 12 40 13 55 4 42 -27 45 -88 4 -88 -27 0
-30 9 -11 29 10 10 8 12 -8 9 -28 -5 -32 -44 -6 -57 24 -13 65 0 75 24 13 34
5 58 -27 89 -27 26 -32 36 -26 54 5 12 17 22 28 22 11 0 23 5 26 10 4 6 -22
10 -69 10 -44 0 -76 4 -76 10 0 6 4 10 8 10 5 0 18 9 30 20 28 27 28 65 0 84
-26 19 -36 19 -63 4z m53 -41 c4 -19 -23 -46 -45 -47 -8 0 -13 12 -13 29 0 16
6 32 13 34 22 10 42 2 45 -16z m-28 -132 c28 -29 31 -35 17 -41 -44 -17 -103
30 -76 62 16 20 21 18 59 -21z m64 10 c-8 -19 -15 -19 -40 0 -18 14 -17 14 13
15 25 0 31 -4 27 -15z"/>
<path d="M9120 8880 l0 -120 79 0 c74 0 81 2 100 26 26 33 26 45 1 77 -14 18
-18 33 -14 56 4 20 1 39 -10 56 -15 23 -23 25 -86 25 l-70 0 0 -120z m121 100
c23 -13 26 -62 4 -80 -9 -7 -32 -13 -53 -14 l-37 -1 -3 53 -3 52 36 0 c20 0
45 -5 56 -10z m39 -124 c33 -41 -14 -88 -85 -84 l-40 3 -3 48 -3 47 59 0 c40
0 64 -5 72 -14z"/>
<path d="M9581 8885 c-24 -64 -41 -118 -38 -122 4 -3 12 6 18 21 11 24 17 26
79 26 62 0 68 -2 78 -25 10 -21 32 -35 32 -20 0 3 -21 57 -46 120 -33 82 -51
115 -63 115 -11 0 -29 -33 -60 -115z m92 8 l26 -63 -60 0 -59 0 21 53 c12 28
24 60 27 70 7 25 16 13 45 -60z"/>
<path d="M10394 8984 c3 -9 6 -63 6 -120 0 -63 4 -104 10 -104 6 0 10 17 10
38 0 25 7 45 19 56 18 16 21 15 67 -38 27 -31 57 -56 67 -56 14 0 3 18 -42 67
l-61 68 47 47 c26 26 43 51 39 55 -5 5 -34 -20 -65 -54 -31 -35 -60 -63 -64
-63 -4 0 -7 27 -7 60 0 48 -3 60 -16 60 -11 0 -14 -5 -10 -16z"/>
<path d="M10820 8880 l0 -120 80 0 c47 0 80 4 80 10 0 6 -28 10 -65 10 l-65 0
0 55 0 55 65 0 c37 0 65 4 65 10 0 6 -28 10 -65 10 l-65 0 0 35 0 35 59 0 c33
0 63 5 66 10 4 6 -23 10 -74 10 l-81 0 0 -120z"/>
<path d="M11220 8881 c0 -100 3 -121 15 -121 11 0 15 19 17 92 l3 92 73 -92
c41 -51 78 -92 83 -92 5 0 9 54 9 120 0 90 -3 120 -13 120 -9 0 -11 -20 -9
-80 6 -124 2 -125 -84 -18 -42 51 -80 95 -85 96 -5 2 -9 -51 -9 -117z"/>
<path d="M11674 8984 c3 -9 6 -63 6 -121 l0 -105 66 4 c60 4 70 7 95 36 23 26
29 42 29 78 0 53 -23 97 -57 113 -13 6 -51 11 -85 11 -51 0 -59 -2 -54 -16z
m144 -28 c21 -20 26 -35 26 -75 0 -60 -20 -86 -77 -102 -64 -17 -67 -12 -67
99 0 54 3 102 8 106 14 15 85 -3 110 -28z"/>
<path d="M12470 8880 l0 -120 58 0 c75 0 117 25 133 80 9 31 9 49 0 79 -17 60
-51 81 -127 81 l-64 0 0 -120z m115 96 c40 -17 55 -42 55 -93 0 -58 -19 -86
-68 -102 -69 -21 -72 -16 -72 104 l0 105 25 0 c14 0 41 -6 60 -14z"/>
<path d="M12910 8880 l0 -120 80 0 c47 0 80 4 80 10 0 6 -28 10 -65 10 l-65 0
0 55 0 55 65 0 c37 0 65 4 65 10 0 6 -28 10 -65 10 l-65 0 0 35 0 35 59 0 c33
0 63 5 66 10 4 6 -23 10 -74 10 l-81 0 0 -120z"/>
<path d="M13340 8883 c28 -72 52 -119 62 -121 11 -2 27 26 58 105 23 59 44
114 47 121 3 6 -1 12 -9 12 -8 0 -26 -37 -47 -97 -19 -54 -37 -102 -41 -106
-4 -5 -25 38 -47 95 -24 60 -46 104 -55 106 -11 2 -3 -28 32 -115z"/>
<path d="M13740 8880 l0 -120 80 0 c47 0 80 4 80 10 0 6 -28 10 -65 10 l-65 0
0 55 0 55 65 0 c37 0 65 4 65 10 0 6 -28 10 -65 10 l-65 0 0 35 0 35 59 0 c33
0 63 5 66 10 4 6 -23 10 -74 10 l-81 0 0 -120z"/>
<path d="M14144 8984 c3 -9 6 -63 6 -120 l0 -104 69 0 c39 0 73 5 76 10 4 6
-18 10 -59 10 l-66 0 0 110 c0 94 -2 110 -16 110 -11 0 -14 -5 -10 -16z"/>
<path d="M14980 8880 c0 -73 4 -120 10 -120 6 0 10 14 10 30 0 28 3 30 35 30
79 0 130 59 105 120 -18 44 -47 60 -107 60 l-53 0 0 -120z m116 87 c56 -49 24
-128 -53 -131 l-38 -1 -3 78 -3 77 35 0 c22 0 45 -9 62 -23z"/>
<path d="M15390 8880 l0 -120 78 2 77 1 -65 6 -65 6 -3 58 -3 57 66 0 c37 0
65 4 65 10 0 6 -29 10 -66 10 l-65 0 3 38 3 37 65 6 65 6 -77 1 -78 2 0 -120z"/>
<path d="M15790 8886 c0 -63 4 -117 9 -121 5 -3 11 7 13 22 3 24 8 29 37 31
27 3 38 -2 62 -30 30 -35 37 -29 15 12 -13 22 -12 27 10 53 33 39 31 81 -5
118 -16 16 -38 29 -48 29 -14 -1 -11 -4 9 -16 81 -44 51 -160 -40 -152 l-37 3
0 83 c0 59 -4 82 -12 82 -10 0 -13 -30 -13 -114z"/>
</g>
</svg>
